<!-- icon666.com - MILLIONS OF FREE VECTOR ICONS --><svg version="1.1" id="Capa_1" xmlns="http://www.w3.org/2000/svg" xmlns:xlink="http://www.w3.org/1999/xlink" x="0px" y="0px" viewBox="0 0 595.201 595.201" style="enable-background:new 0 0 595.201 595.201;" xml:space="preserve"><g><g><path d="M536.562,59.21H58.64c-32.059,0-58.14,26.082-58.14,58.14v56.46c0,25.232,16.16,46.759,38.672,54.784 c-0.187,1.895-0.285,3.816-0.285,5.76v243.498c0,32.058,26.082,58.14,58.14,58.14h401.146c32.059,0,58.141-26.082,58.141-58.14 V234.354c0-1.943-0.1-3.865-0.285-5.76c22.512-8.023,38.672-29.551,38.672-54.784v-56.46 C594.701,85.292,568.621,59.21,536.562,59.21z M551.861,173.811c0,8.45-6.85,15.3-15.299,15.3h-1.92H60.56H58.64 c-8.45,0-15.3-6.85-15.3-15.3v-56.46c0-8.45,6.85-15.3,15.3-15.3h477.922c8.449,0,15.299,6.85,15.299,15.3V173.811 L551.861,173.811z M513.475,234.354v243.498c0,8.449-6.85,15.3-15.301,15.3H97.028c-8.45,0-15.3-6.851-15.3-15.3V234.354 c0-0.818,0.065-1.62,0.189-2.404h431.368C513.408,232.733,513.475,233.536,513.475,234.354z" fill="#000000" style="fill: rgb(255, 255, 255);"></path><path d="M498.174,536.491H97.027c-32.334,0-58.64-26.306-58.64-58.64V234.354c0-1.792,0.084-3.614,0.25-5.421 C15.511,220.516,0,198.414,0,173.811v-56.46c0-32.334,26.306-58.64,58.64-58.64h477.922c32.333,0,58.639,26.306,58.639,58.64 v56.46c0,24.605-15.511,46.707-38.638,55.123c0.167,1.82,0.251,3.642,0.251,5.421v243.498 C556.814,510.186,530.509,536.491,498.174,536.491z M58.64,59.71C26.857,59.71,1,85.567,1,117.35v56.46 c0,24.312,15.408,46.138,38.34,54.312l0.368,0.131l-0.039,0.389c-0.188,1.901-0.283,3.823-0.283,5.711v243.498 c0,31.782,25.857,57.64,57.64,57.64h401.146c31.783,0,57.641-25.857,57.641-57.64V234.354c0-1.873-0.095-3.794-0.283-5.711 l-0.038-0.389l0.368-0.131c22.933-8.173,38.34-30,38.34-54.312v-56.46c0-31.783-25.856-57.64-57.639-57.64H58.64z M498.174,493.651H97.028c-8.712,0-15.8-7.088-15.8-15.8V234.354c0-0.827,0.066-1.662,0.196-2.482l0.066-0.422h432.223 l0.066,0.422c0.13,0.826,0.195,1.661,0.195,2.481v243.498C513.975,486.563,506.887,493.651,498.174,493.651z M82.351,232.45 c-0.081,0.632-0.123,1.271-0.123,1.904v243.498c0,8.16,6.639,14.8,14.8,14.8h401.146c8.161,0,14.801-6.64,14.801-14.8V234.354 c0-0.629-0.041-1.268-0.123-1.904H82.351z M536.562,189.61H58.64c-8.712,0-15.8-7.088-15.8-15.8v-56.46 c0-8.712,7.088-15.8,15.8-15.8h477.922c8.712,0,15.799,7.088,15.799,15.8v56.46C552.361,182.522,545.274,189.61,536.562,189.61z M58.64,102.55c-8.161,0-14.8,6.639-14.8,14.8v56.46c0,8.161,6.639,14.8,14.8,14.8h477.922c8.16,0,14.799-6.639,14.799-14.8 v-56.46c0-8.161-6.639-14.8-14.799-14.8H58.64z" fill="#000000" style="fill: rgb(255, 255, 255);"></path></g><g><path d="M391.555,450.394h51.889c8.451,0,15.301-6.85,15.301-15.3v-12.883c0-8.45-6.85-15.3-15.301-15.3h-51.889 c-8.451,0-15.301,6.85-15.301,15.3v12.883C376.254,443.544,383.104,450.394,391.555,450.394z" fill="#000000" style="fill: rgb(255, 255, 255);"></path><path d="M443.443,450.894h-51.889c-8.713,0-15.801-7.088-15.801-15.8v-12.883c0-8.712,7.088-15.8,15.801-15.8h51.889 c8.713,0,15.801,7.088,15.801,15.8v12.883C459.244,443.806,452.156,450.894,443.443,450.894z M391.555,407.411 c-8.161,0-14.801,6.64-14.801,14.8v12.883c0,8.16,6.64,14.8,14.801,14.8h51.889c8.161,0,14.801-6.64,14.801-14.8v-12.883 c0-8.16-6.64-14.8-14.801-14.8H391.555z" fill="#000000" style="fill: rgb(255, 255, 255);"></path></g></g></svg>