<svg width="25" height="28" viewBox="0 0 25 28" fill="none" xmlns="http://www.w3.org/2000/svg">
<g id="icon-instagram" clip-path="url(#clip0_514_1902)">
<path id="Vector" d="M12.5056 7.71092C8.95647 7.71092 6.09375 10.5164 6.09375 13.9945C6.09375 17.4726 8.95647 20.2781 12.5056 20.2781C16.0547 20.2781 18.9174 17.4726 18.9174 13.9945C18.9174 10.5164 16.0547 7.71092 12.5056 7.71092ZM12.5056 18.0797C10.2121 18.0797 8.33705 16.2476 8.33705 13.9945C8.33705 11.7414 10.2065 9.90936 12.5056 9.90936C14.8047 9.90936 16.6741 11.7414 16.6741 13.9945C16.6741 16.2476 14.7991 18.0797 12.5056 18.0797ZM20.6752 7.45389C20.6752 8.26874 20.0056 8.91952 19.1797 8.91952C18.3482 8.91952 17.6841 8.26327 17.6841 7.45389C17.6841 6.64452 18.3538 5.98827 19.1797 5.98827C20.0056 5.98827 20.6752 6.64452 20.6752 7.45389ZM24.9219 8.94139C24.827 6.97811 24.3694 5.23905 22.9018 3.80624C21.4397 2.37342 19.6652 1.92499 17.6618 1.82655C15.5971 1.71171 9.40848 1.71171 7.34375 1.82655C5.34598 1.91952 3.57143 2.36796 2.1038 3.80077C0.636165 5.23358 0.184156 6.97264 0.0837097 8.93592C-0.0334778 10.9594 -0.0334778 17.0242 0.0837097 19.0476C0.178576 21.0109 0.636165 22.75 2.1038 24.1828C3.57143 25.6156 5.3404 26.064 7.34375 26.1625C9.40848 26.2773 15.5971 26.2773 17.6618 26.1625C19.6652 26.0695 21.4397 25.6211 22.9018 24.1828C24.3638 22.75 24.8214 21.0109 24.9219 19.0476C25.0391 17.0242 25.0391 10.9648 24.9219 8.94139ZM22.2545 21.2187C21.8192 22.2906 20.9766 23.1164 19.8772 23.5484C18.231 24.1883 14.3248 24.0406 12.5056 24.0406C10.6864 24.0406 6.77455 24.1828 5.13393 23.5484C4.04018 23.1219 3.19755 22.2961 2.7567 21.2187C2.1038 19.6055 2.25447 15.7773 2.25447 13.9945C2.25447 12.2117 2.10938 8.37811 2.7567 6.7703C3.19197 5.69842 4.0346 4.87264 5.13393 4.44061C6.78013 3.80077 10.6864 3.94842 12.5056 3.94842C14.3248 3.94842 18.2366 3.80624 19.8772 4.44061C20.971 4.86717 21.8136 5.69296 22.2545 6.7703C22.9074 8.38358 22.7567 12.2117 22.7567 13.9945C22.7567 15.7773 22.9074 19.6109 22.2545 21.2187Z" fill="white"/>
</g>
<defs>
<clipPath id="clip0_514_1902">
<rect width="25" height="28" fill="white"/>
</clipPath>
</defs>
</svg>
